# xmcd
#
# Track frame offsets:
#	150
#	14859
#	33177
#	46301
#	63621
#	77254
#	90818
#	104594
#	120526
#	134294
#
# Disc length: 2081 seconds
#
# Revision: 0
# Processed by: cddbd v1.5.2PL0 Copyright (c) Steve Scherf et al.
# Submitted via: EasyCDDAExtractor 12.0.4.1
#
DISCID=78081f0a
DTITLE=Frida Andersson - Busy Missing You
DYEAR=2009
DGENRE=Pop
TTITLE0=Love Candle
TTITLE1=Busy Missing You
TTITLE2=Messed Up Little Kid
TTITLE3=October Blue
TTITLE4=Indian Summer
TTITLE5=Why do I always fall in love
TTITLE6=Hand In Hand
TTITLE7=Jimmy Dean
TTITLE8=Don't Stop
TTITLE9=Amanda
EXTD=
EXTT0=
EXTT1=
EXTT2=
EXTT3=
EXTT4=
EXTT5=
EXTT6=
EXTT7=
EXTT8=
EXTT9=
PLAYORDER=
